<svg xmlns="http://www.w3.org/2000/svg" xmlns:svg="http://www.w3.org/2000/svg" id="svg2" width="210mm" height="297mm" version="1.1"><metadata id="metadata7"/><g id="layer1"><path style="fill:none;stroke:#000;stroke-width:8;stroke-linecap:round;stroke-linejoin:miter;stroke-miterlimit:4;stroke-opacity:1;stroke-dasharray:none" id="path3793" d="m 81.451435,47.885404 -39.71427,39.714277 m 0,-39.714277 39.71427,39.714277 m 27.285725,-19.85714 c 0,26.03628 -21.106585,47.142859 -47.142865,47.142859 -26.03628,0 -47.14285,-21.106579 -47.14285,-47.142859 0,-26.036277 21.10657,-47.142853 47.14285,-47.142853 26.03628,0 47.142865,21.106576 47.142865,47.142853 z"/><path id="rect4241" d="m 238.03158,30.844083 -34.78125,9.875 0,0.25 34.78125,13.4375 0,-23.5625 z m -7.85745,10.984542 c 27.30327,0 49.43694,22.133672 49.43694,49.43694 0,27.303265 -22.13367,49.436935 -49.43694,49.436935 -27.30327,0 -49.43694,-22.13367 -49.43694,-49.436937 0,0 0,-10e-7 0,-10e-7" style="fill:none;stroke:#000;stroke-width:4.12071228;stroke-linecap:round;stroke-linejoin:round;stroke-miterlimit:4;stroke-opacity:1"/><path id="path2984" d="m 84.388275,210.34884 -47.71427,-0.28572 m 70.999995,0.14286 c 0,26.03628 -21.106585,47.14286 -47.142865,47.14286 -26.03628,0 -47.14285,-21.10658 -47.14285,-47.14286 0,-26.03628 21.10657,-47.14285 47.14285,-47.14285 26.03628,0 47.142865,21.10657 47.142865,47.14285 z" style="fill:none;stroke:#000;stroke-width:8;stroke-linecap:round;stroke-linejoin:miter;stroke-miterlimit:4;stroke-opacity:1;stroke-dasharray:none"/></g></svg>